<svg width="16" height="16" viewBox="0 0 16 16" fill="none" xmlns="http://www.w3.org/2000/svg">
<g clip-path="url(#clip0_3_8)">
<rect width="16" height="16" fill="#D0F4DE"/>
<path d="M12.9883 14H11.7812V10.6953C11.7812 10.6276 11.7812 10.5469 11.7812 10.4531C11.7839 10.3568 11.7865 10.2578 11.7891 10.1562C11.7943 10.0521 11.7982 9.94792 11.8008 9.84375C11.806 9.73958 11.8099 9.64453 11.8125 9.55859C11.7995 9.57422 11.7773 9.59766 11.7461 9.62891C11.7148 9.66016 11.6797 9.69531 11.6406 9.73438C11.6016 9.77083 11.5612 9.80859 11.5195 9.84766C11.4779 9.88672 11.4375 9.92188 11.3984 9.95312L10.7422 10.4805L10.1562 9.75391L11.9961 8.28906H12.9883V14Z" fill="#1D3A47"/>
<path d="M5.95703 8.14453C5.95703 8.60547 5.92057 9.01693 5.84766 9.37891C5.77734 9.74089 5.66276 10.0482 5.50391 10.3008C5.34766 10.5534 5.14453 10.7461 4.89453 10.8789C4.64714 11.0117 4.34766 11.0781 3.99609 11.0781C3.66536 11.0781 3.3776 11.0117 3.13281 10.8789C2.88802 10.7461 2.6849 10.5534 2.52344 10.3008C2.36198 10.0482 2.24089 9.74089 2.16016 9.37891C2.08203 9.01693 2.04297 8.60547 2.04297 8.14453C2.04297 7.68359 2.07812 7.27083 2.14844 6.90625C2.22135 6.54167 2.33594 6.23307 2.49219 5.98047C2.64844 5.72786 2.85026 5.53516 3.09766 5.40234C3.34505 5.26693 3.64453 5.19922 3.99609 5.19922C4.32422 5.19922 4.61068 5.26562 4.85547 5.39844C5.10026 5.53125 5.30469 5.72396 5.46875 5.97656C5.63281 6.22917 5.75521 6.53776 5.83594 6.90234C5.91667 7.26693 5.95703 7.68099 5.95703 8.14453ZM3.24609 8.14453C3.24609 8.79557 3.30208 9.28516 3.41406 9.61328C3.52604 9.94141 3.72005 10.1055 3.99609 10.1055C4.26693 10.1055 4.46094 9.94271 4.57812 9.61719C4.69792 9.29167 4.75781 8.80078 4.75781 8.14453C4.75781 7.49089 4.69792 7 4.57812 6.67188C4.46094 6.34115 4.26693 6.17578 3.99609 6.17578C3.85807 6.17578 3.74089 6.21745 3.64453 6.30078C3.55078 6.38411 3.47396 6.50781 3.41406 6.67188C3.35417 6.83594 3.3112 7.04167 3.28516 7.28906C3.25911 7.53385 3.24609 7.81901 3.24609 8.14453Z" fill="#1D3A47"/>
<path d="M13.957 1.14453C13.957 1.60547 13.9206 2.01693 13.8477 2.37891C13.7773 2.74089 13.6628 3.04818 13.5039 3.30078C13.3477 3.55339 13.1445 3.74609 12.8945 3.87891C12.6471 4.01172 12.3477 4.07812 11.9961 4.07812C11.6654 4.07812 11.3776 4.01172 11.1328 3.87891C10.888 3.74609 10.6849 3.55339 10.5234 3.30078C10.362 3.04818 10.2409 2.74089 10.1602 2.37891C10.082 2.01693 10.043 1.60547 10.043 1.14453C10.043 0.683594 10.0781 0.270833 10.1484 -0.09375C10.2214 -0.458333 10.3359 -0.766927 10.4922 -1.01953C10.6484 -1.27214 10.8503 -1.46484 11.0977 -1.59766C11.3451 -1.73307 11.6445 -1.80078 11.9961 -1.80078C12.3242 -1.80078 12.6107 -1.73438 12.8555 -1.60156C13.1003 -1.46875 13.3047 -1.27604 13.4688 -1.02344C13.6328 -0.770833 13.7552 -0.46224 13.8359 -0.0976562C13.9167 0.266927 13.957 0.68099 13.957 1.14453ZM11.2461 1.14453C11.2461 1.79557 11.3021 2.28516 11.4141 2.61328C11.526 2.94141 11.7201 3.10547 11.9961 3.10547C12.2669 3.10547 12.4609 2.94271 12.5781 2.61719C12.6979 2.29167 12.7578 1.80078 12.7578 1.14453C12.7578 0.490885 12.6979 0 12.5781 -0.328125C12.4609 -0.658854 12.2669 -0.824219 11.9961 -0.824219C11.8581 -0.824219 11.7409 -0.782552 11.6445 -0.699219C11.5508 -0.615885 11.474 -0.492188 11.4141 -0.328125C11.3542 -0.164062 11.3112 0.0416667 11.2852 0.289062C11.2591 0.533854 11.2461 0.81901 11.2461 1.14453Z" fill="#1D3A47"/>
<path d="M8 15.5V0.5" stroke="#1D3A47"/>
</g>
<rect x="0.5" y="0.5" width="15" height="15" stroke="#1D3A47"/>
<defs>
<clipPath id="clip0_3_8">
<rect width="16" height="16" fill="white"/>
</clipPath>
</defs>
</svg>
